<?xml version="1.0" encoding="UTF-8" standalone="no"?>
<!DOCTYPE svg PUBLIC "-//W3C//DTD SVG 1.1//EN"
 "http://www.w3.org/Graphics/SVG/1.1/DTD/svg11.dtd">
<!-- Generated by graphviz version 2.38.0 (20140413.2041)
 -->
<!-- Title: 股权结构图 Pages: 1 -->
<svg width="316pt" height="120pt"
 viewBox="0.00 0.00 315.50 120.00" xmlns="http://www.w3.org/2000/svg" xmlns:xlink="http://www.w3.org/1999/xlink">
<g id="graph0" class="graph" transform="scale(1 1) rotate(0) translate(4 116)">
<title>股权结构图</title>
<polygon fill="white" stroke="none" points="-4,4 -4,-116 311.5,-116 311.5,4 -4,4"/>
<!-- 3 -->
<g id="node1" class="node"><title>3</title>
<polygon fill="#61717d" stroke="#61717d" points="127.5,-112 92.5,-112 92.5,-94 127.5,-94 127.5,-112"/>
<text text-anchor="middle" x="110" y="-101.4" font-family="STZhongsong" font-size="7.00" fill="#ffffff">企业A</text>
</g>
<!-- 9 -->
<g id="node2" class="node"><title>9</title>
<polygon fill="#61717d" stroke="#61717d" points="65.5,-65 30.5,-65 30.5,-47 65.5,-47 65.5,-65"/>
<text text-anchor="middle" x="48" y="-54.4" font-family="STZhongsong" font-size="7.00" fill="#ffffff">企业E</text>
</g>
<!-- 3&#45;&gt;9 -->
<g id="edge1" class="edge"><title>3&#45;&gt;9</title>
<path fill="none" stroke="#c1a57b" d="M97.6292,-93.8251C92.7205,-90.5244 87.0517,-86.6411 82,-83 75.4368,-78.2695 68.3064,-72.8599 62.2784,-68.2046"/>
<polygon fill="#c1a57b" stroke="#c1a57b" points="63.3252,-66.8018 58.3018,-65.1197 61.1798,-69.5672 63.3252,-66.8018"/>
<text text-anchor="middle" x="90" y="-78.2" font-family="STZhongsong" font-size="6.00">9.6%</text>
</g>
<!-- 8 -->
<g id="node3" class="node"><title>8</title>
<polygon fill="#61717d" stroke="#61717d" points="107.5,-65 72.5,-65 72.5,-47 107.5,-47 107.5,-65"/>
<text text-anchor="middle" x="90" y="-54.4" font-family="STZhongsong" font-size="7.00" fill="#ffffff">企业B</text>
</g>
<!-- 3&#45;&gt;8 -->
<g id="edge2" class="edge"><title>3&#45;&gt;8</title>
<path fill="none" stroke="#c1a57b" d="M106.332,-93.7463C103.4,-87.1493 99.234,-77.7764 95.8436,-70.1482"/>
<polygon fill="#c1a57b" stroke="#c1a57b" points="97.275,-69.0597 93.6451,-65.2014 94.0766,-70.4812 97.275,-69.0597"/>
<text text-anchor="middle" x="111.5" y="-78.2" font-family="STZhongsong" font-size="6.00">50.8%</text>
</g>
<!-- 1 -->
<g id="node4" class="node"><title>1</title>
<polygon fill="#61717d" stroke="#61717d" points="149.5,-65 114.5,-65 114.5,-47 149.5,-47 149.5,-65"/>
<text text-anchor="middle" x="132" y="-54.4" font-family="STZhongsong" font-size="7.00" fill="#ffffff">企业D</text>
</g>
<!-- 3&#45;&gt;1 -->
<g id="edge3" class="edge"><title>3&#45;&gt;1</title>
<path fill="none" stroke="#c1a57b" d="M114.376,-93.9114C116.16,-90.5558 118.218,-86.6101 120,-83 122.087,-78.7704 124.276,-74.1047 126.204,-69.9072"/>
<polygon fill="#c1a57b" stroke="#c1a57b" points="127.845,-70.5245 128.325,-65.2488 124.66,-69.0737 127.845,-70.5245"/>
<text text-anchor="middle" x="133.5" y="-78.2" font-family="STZhongsong" font-size="6.00">16.7%</text>
</g>
<!-- 6 -->
<g id="node5" class="node"><title>6</title>
<polygon fill="#61717d" stroke="#61717d" points="267.5,-65 232.5,-65 232.5,-47 267.5,-47 267.5,-65"/>
<text text-anchor="middle" x="250" y="-54.4" font-family="STZhongsong" font-size="7.00" fill="#ffffff">企业C</text>
</g>
<!-- 3&#45;&gt;6 -->
<g id="edge4" class="edge"><title>3&#45;&gt;6</title>
<path fill="none" stroke="#c1a57b" d="M127.731,-96.3007C153.083,-88.152 199.686,-73.1725 227.456,-64.2463"/>
<polygon fill="#c1a57b" stroke="#c1a57b" points="228.188,-65.8492 232.413,-62.653 227.117,-62.5171 228.188,-65.8492"/>
<text text-anchor="middle" x="200.5" y="-78.2" font-family="STZhongsong" font-size="6.00">100.0%</text>
</g>
<!-- 2 -->
<g id="node6" class="node"><title>2</title>
<polygon fill="#61717d" stroke="#61717d" points="73.5,-18 38.5,-18 38.5,-0 73.5,-0 73.5,-18"/>
<text text-anchor="middle" x="56" y="-7.4" font-family="STZhongsong" font-size="7.00" fill="#ffffff">企业F</text>
</g>
<!-- 9&#45;&gt;2 -->
<g id="edge10" class="edge"><title>9&#45;&gt;2</title>
<path fill="none" stroke="#c1a57b" d="M49.1463,-46.7837C49.8906,-41.6582 50.9203,-34.931 52,-29 52.3464,-27.0972 52.7384,-25.093 53.1383,-23.1283"/>
<polygon fill="#c1a57b" stroke="#c1a57b" points="54.8756,-23.3698 54.1888,-18.1171 51.4501,-22.6516 54.8756,-23.3698"/>
<text text-anchor="middle" x="61.5" y="-31.2" font-family="STZhongsong" font-size="6.00">47.8%</text>
</g>
<!-- 4 -->
<g id="node10" class="node"><title>4</title>
<polygon fill="#61717d" stroke="#61717d" points="34,-18 0,-18 0,-0 34,-0 34,-18"/>
<text text-anchor="middle" x="17" y="-7.4" font-family="STZhongsong" font-size="7.00" fill="#ffffff">企业J</text>
</g>
<!-- 9&#45;&gt;4 -->
<g id="edge9" class="edge"><title>9&#45;&gt;4</title>
<path fill="none" stroke="#c1a57b" d="M39.9341,-46.8445C36.9458,-43.6102 33.6443,-39.768 31,-36 28.0587,-31.8088 25.2815,-26.9305 22.9881,-22.5392"/>
<polygon fill="#c1a57b" stroke="#c1a57b" points="24.5217,-21.6939 20.7045,-18.0208 21.398,-23.2727 24.5217,-21.6939"/>
<text text-anchor="middle" x="40.5" y="-31.2" font-family="STZhongsong" font-size="6.00">48.6%</text>
</g>
<!-- 8&#45;&gt;2 -->
<g id="edge5" class="edge"><title>8&#45;&gt;2</title>
<path fill="none" stroke="#c1a57b" d="M83.7639,-46.7463C78.5877,-39.8955 71.1499,-30.0513 65.2752,-22.276"/>
<polygon fill="#c1a57b" stroke="#c1a57b" points="66.6071,-21.1358 62.1966,-18.2014 63.8145,-23.2457 66.6071,-21.1358"/>
<text text-anchor="middle" x="85.5" y="-31.2" font-family="STZhongsong" font-size="6.00">52.2%</text>
</g>
<!-- 7 -->
<g id="node8" class="node"><title>7</title>
<polygon fill="#61717d" stroke="#61717d" points="227.5,-18 192.5,-18 192.5,-0 227.5,-0 227.5,-18"/>
<text text-anchor="middle" x="210" y="-7.4" font-family="STZhongsong" font-size="7.00" fill="#ffffff">企业H</text>
</g>
<!-- 1&#45;&gt;7 -->
<g id="edge7" class="edge"><title>1&#45;&gt;7</title>
<path fill="none" stroke="#c1a57b" d="M149.593,-48.2706C157.554,-44.9634 166.96,-40.6834 175,-36 182.334,-31.7278 189.957,-26.2102 196.21,-21.3578"/>
<polygon fill="#c1a57b" stroke="#c1a57b" points="197.46,-22.6005 200.3,-18.1282 195.291,-19.8537 197.46,-22.6005"/>
<text text-anchor="middle" x="194" y="-31.2" font-family="STZhongsong" font-size="6.00">5.7%</text>
</g>
<!-- 11 -->
<g id="node9" class="node"><title>11</title>
<polygon fill="#61717d" stroke="#61717d" points="110,-18 78,-18 78,-0 110,-0 110,-18"/>
<text text-anchor="middle" x="94" y="-7.4" font-family="STZhongsong" font-size="7.00" fill="#ffffff">企业I</text>
</g>
<!-- 1&#45;&gt;11 -->
<g id="edge8" class="edge"><title>1&#45;&gt;11</title>
<path fill="none" stroke="#c1a57b" d="M124.629,-46.9432C121.606,-43.5924 118.097,-39.6418 115,-36 111.279,-31.6238 107.295,-26.744 103.809,-22.4045"/>
<polygon fill="#c1a57b" stroke="#c1a57b" points="105.004,-21.0974 100.516,-18.2838 102.27,-23.2824 105.004,-21.0974"/>
<text text-anchor="middle" x="123" y="-31.2" font-family="STZhongsong" font-size="6.00">5.0%</text>
</g>
<!-- 5 -->
<g id="node11" class="node"><title>5</title>
<polygon fill="#61717d" stroke="#61717d" points="149.5,-18 114.5,-18 114.5,-0 149.5,-0 149.5,-18"/>
<text text-anchor="middle" x="132" y="-7.4" font-family="STZhongsong" font-size="7.00" fill="#ffffff">企业K</text>
</g>
<!-- 1&#45;&gt;5 -->
<g id="edge11" class="edge"><title>1&#45;&gt;5</title>
<path fill="none" stroke="#c1a57b" d="M132,-46.7463C132,-40.2761 132,-31.1359 132,-23.5902"/>
<polygon fill="#c1a57b" stroke="#c1a57b" points="133.75,-23.2013 132,-18.2014 130.25,-23.2014 133.75,-23.2013"/>
<text text-anchor="middle" x="141.5" y="-31.2" font-family="STZhongsong" font-size="6.00">20.0%</text>
</g>
<!-- 12 -->
<g id="node12" class="node"><title>12</title>
<polygon fill="#61717d" stroke="#61717d" points="188,-18 154,-18 154,-0 188,-0 188,-18"/>
<text text-anchor="middle" x="171" y="-7.4" font-family="STZhongsong" font-size="7.00" fill="#ffffff">企业L</text>
</g>
<!-- 1&#45;&gt;12 -->
<g id="edge12" class="edge"><title>1&#45;&gt;12</title>
<path fill="none" stroke="#c1a57b" d="M141.302,-46.8161C144.794,-43.5784 148.712,-39.7412 152,-36 155.765,-31.7168 159.546,-26.7192 162.732,-22.2565"/>
<polygon fill="#c1a57b" stroke="#c1a57b" points="164.265,-23.1182 165.698,-18.0183 161.398,-21.1114 164.265,-23.1182"/>
<text text-anchor="middle" x="166" y="-31.2" font-family="STZhongsong" font-size="6.00">2.0%</text>
</g>
<!-- 10 -->
<g id="node7" class="node"><title>10</title>
<polygon fill="#61717d" stroke="#61717d" points="307.5,-18 272.5,-18 272.5,-0 307.5,-0 307.5,-18"/>
<text text-anchor="middle" x="290" y="-7.4" font-family="STZhongsong" font-size="7.00" fill="#ffffff">企业G</text>
</g>
<!-- 6&#45;&gt;10 -->
<g id="edge6" class="edge"><title>6&#45;&gt;10</title>
<path fill="none" stroke="#c1a57b" d="M261.943,-46.8583C266.036,-43.741 270.47,-39.9728 274,-36 277.516,-32.0428 280.724,-27.2159 283.329,-22.8002"/>
<polygon fill="#c1a57b" stroke="#c1a57b" points="284.974,-23.4458 285.905,-18.2308 281.925,-21.7268 284.974,-23.4458"/>
<text text-anchor="middle" x="289.5" y="-31.2" font-family="STZhongsong" font-size="6.00">50.0%</text>
</g>
<!-- 0 -->
<g id="node13" class="node"><title>0</title>
<polygon fill="#61717d" stroke="#61717d" points="268,-18 232,-18 232,-0 268,-0 268,-18"/>
<text text-anchor="middle" x="250" y="-7.4" font-family="STZhongsong" font-size="7.00" fill="#ffffff">企业M</text>
</g>
<!-- 6&#45;&gt;0 -->
<g id="edge13" class="edge"><title>6&#45;&gt;0</title>
<path fill="none" stroke="#c1a57b" d="M250,-46.7463C250,-40.2761 250,-31.1359 250,-23.5902"/>
<polygon fill="#c1a57b" stroke="#c1a57b" points="251.75,-23.2013 250,-18.2014 248.25,-23.2014 251.75,-23.2013"/>
<text text-anchor="middle" x="261.5" y="-31.2" font-family="STZhongsong" font-size="6.00">100.0%</text>
</g>
</g>
</svg>
