<?xml version="1.0" encoding="UTF-8" standalone="no"?>
<!DOCTYPE svg PUBLIC "-//W3C//DTD SVG 1.1//EN"
 "http://www.w3.org/Graphics/SVG/1.1/DTD/svg11.dtd">
<!-- Generated by graphviz version 2.38.0 (20140413.2041)
 -->
<!-- Title: 股权结构图&#45;上饶投资 Pages: 1 -->
<svg width="758pt" height="497pt"
 viewBox="0.00 0.00 758.00 497.00" xmlns="http://www.w3.org/2000/svg" xmlns:xlink="http://www.w3.org/1999/xlink">
<g id="graph0" class="graph" transform="scale(1 1) rotate(0) translate(4 493)">
<title>股权结构图&#45;上饶投资</title>
<polygon fill="white" stroke="none" points="-4,4 -4,-493 754,-493 754,4 -4,4"/>
<!-- 2 -->
<g id="node1" class="node"><title>2</title>
<polygon fill="#223242" stroke="#223242" points="115,-283 0,-283 0,-266 115,-266 115,-283"/>
<text text-anchor="middle" x="57.5" y="-272.6" font-family="STZhongsong" font-size="8.00" fill="#ffffff">上饶投资控股集团有限公司</text>
</g>
<!-- 5 -->
<g id="node2" class="node"><title>5</title>
<polygon fill="#4c5c69" stroke="#4c5c69" points="304.5,-321 164.5,-321 164.5,-304 304.5,-304 304.5,-321"/>
<text text-anchor="middle" x="234.5" y="-310.6" font-family="STZhongsong" font-size="8.00" fill="#ffffff">上饶市旅游发展集团有限责任公司</text>
</g>
<!-- 2&#45;&gt;5 -->
<g id="edge1" class="edge"><title>2&#45;&gt;5</title>
<path fill="none" stroke="#c1a57b" d="M97.7734,-283.028C124.811,-288.899 160.783,-296.71 188.9,-302.816"/>
<polygon fill="#c1a57b" stroke="#c1a57b" points="188.798,-304.584 194.055,-303.935 189.541,-301.164 188.798,-304.584"/>
<text text-anchor="middle" x="135.5" y="-293.5" font-family="STZhongsong" font-size="5.00">100.0%</text>
</g>
<!-- 10 -->
<g id="node3" class="node"><title>10</title>
<polygon fill="#4c5c69" stroke="#4c5c69" points="313,-227 156,-227 156,-210 313,-210 313,-227"/>
<text text-anchor="middle" x="234.5" y="-216.6" font-family="STZhongsong" font-size="8.00" fill="#ffffff">上饶市城市建设投资开发集团有限公司</text>
</g>
<!-- 2&#45;&gt;10 -->
<g id="edge2" class="edge"><title>2&#45;&gt;10</title>
<path fill="none" stroke="#c1a57b" d="M85.0787,-265.995C116.429,-255.963 168.493,-239.302 201.885,-228.617"/>
<polygon fill="#c1a57b" stroke="#c1a57b" points="202.442,-230.276 206.671,-227.085 201.376,-226.942 202.442,-230.276"/>
<text text-anchor="middle" x="135.5" y="-253.5" font-family="STZhongsong" font-size="5.00">100.0%</text>
</g>
<!-- 34 -->
<g id="node4" class="node"><title>34</title>
<polygon fill="#768690" stroke="#768690" points="519,-489 379,-489 379,-472 519,-472 519,-489"/>
<text text-anchor="middle" x="449" y="-478.6" font-family="STZhongsong" font-size="8.00" fill="#ffffff">上饶市旅游集散中心开发有限公司</text>
</g>
<!-- 5&#45;&gt;34 -->
<g id="edge3" class="edge"><title>5&#45;&gt;34</title>
<path fill="none" stroke="#c1a57b" d="M239.639,-321.315C250.755,-344.319 283.195,-407.239 324,-448.5 335.268,-459.894 338.988,-462.893 354,-468.5 360.263,-470.84 366.907,-472.739 373.653,-474.279"/>
<polygon fill="#c1a57b" stroke="#c1a57b" points="373.571,-476.051 378.826,-475.387 374.304,-472.628 373.571,-476.051"/>
<text text-anchor="middle" x="333.5" y="-465.5" font-family="STZhongsong" font-size="5.00">100.0%</text>
</g>
<!-- 8 -->
<g id="node5" class="node"><title>8</title>
<polygon fill="#768690" stroke="#768690" points="498.5,-468 399.5,-468 399.5,-451 498.5,-451 498.5,-468"/>
<text text-anchor="middle" x="449" y="-457.6" font-family="STZhongsong" font-size="8.00" fill="#ffffff">上饶旅游客运有限公司</text>
</g>
<!-- 5&#45;&gt;8 -->
<g id="edge4" class="edge"><title>5&#45;&gt;8</title>
<path fill="none" stroke="#c1a57b" d="M239.31,-321.043C251.444,-346.966 292.066,-424.365 354,-447.5 366.517,-452.176 380.554,-455.092 393.885,-456.896"/>
<polygon fill="#c1a57b" stroke="#c1a57b" points="393.973,-458.67 399.152,-457.556 394.408,-455.197 393.973,-458.67"/>
<text text-anchor="middle" x="333.5" y="-443.5" font-family="STZhongsong" font-size="5.00">100.0%</text>
</g>
<!-- 19 -->
<g id="node6" class="node"><title>19</title>
<polygon fill="#768690" stroke="#768690" points="527.5,-447 370.5,-447 370.5,-430 527.5,-430 527.5,-447"/>
<text text-anchor="middle" x="449" y="-436.6" font-family="STZhongsong" font-size="8.00" fill="#ffffff">上饶市上旅乡村文化旅游发展有限公司</text>
</g>
<!-- 5&#45;&gt;19 -->
<g id="edge5" class="edge"><title>5&#45;&gt;19</title>
<path fill="none" stroke="#c1a57b" d="M240.752,-321.23C255.239,-344.297 298.404,-406.472 354,-426.5 357.7,-427.833 361.529,-429.022 365.43,-430.081"/>
<polygon fill="#c1a57b" stroke="#c1a57b" points="365.129,-431.81 370.406,-431.356 365.997,-428.42 365.129,-431.81"/>
<text text-anchor="middle" x="333.5" y="-422.5" font-family="STZhongsong" font-size="5.00">100.0%</text>
</g>
<!-- 17 -->
<g id="node7" class="node"><title>17</title>
<polygon fill="#768690" stroke="#768690" points="527.5,-426 370.5,-426 370.5,-409 527.5,-409 527.5,-426"/>
<text text-anchor="middle" x="449" y="-415.6" font-family="STZhongsong" font-size="8.00" fill="#ffffff">上饶市上旅研学旅行投资发展有限公司</text>
</g>
<!-- 5&#45;&gt;17 -->
<g id="edge6" class="edge"><title>5&#45;&gt;17</title>
<path fill="none" stroke="#c1a57b" d="M242.997,-321.276C260.237,-340.73 305.003,-387.198 354,-405.5 357.684,-406.876 361.5,-408.1 365.391,-409.188"/>
<polygon fill="#c1a57b" stroke="#c1a57b" points="365.075,-410.914 370.355,-410.495 365.966,-407.53 365.075,-410.914"/>
<text text-anchor="middle" x="333.5" y="-402.5" font-family="STZhongsong" font-size="5.00">100.0%</text>
</g>
<!-- 31 -->
<g id="node8" class="node"><title>31</title>
<polygon fill="#768690" stroke="#768690" points="544,-405 354,-405 354,-388 544,-388 544,-405"/>
<text text-anchor="middle" x="449" y="-394.6" font-family="STZhongsong" font-size="8.00" fill="#ffffff">上饶市三清山风景名胜区上旅研学旅行有限公司</text>
</g>
<!-- 5&#45;&gt;31 -->
<g id="edge7" class="edge"><title>5&#45;&gt;31</title>
<path fill="none" stroke="#c1a57b" d="M246.137,-321.155C265.976,-336.773 310.557,-369.44 354,-384.5 356.098,-385.227 358.237,-385.912 360.406,-386.555"/>
<polygon fill="#c1a57b" stroke="#c1a57b" points="360.229,-388.322 365.515,-387.983 361.171,-384.952 360.229,-388.322"/>
<text text-anchor="middle" x="333.5" y="-380.5" font-family="STZhongsong" font-size="5.00">100.0%</text>
</g>
<!-- 14 -->
<g id="node9" class="node"><title>14</title>
<polygon fill="#768690" stroke="#768690" points="515,-384 383,-384 383,-367 515,-367 515,-384"/>
<text text-anchor="middle" x="449" y="-373.6" font-family="STZhongsong" font-size="8.00" fill="#ffffff">上饶市上旅国际旅行社有限公司</text>
</g>
<!-- 5&#45;&gt;14 -->
<g id="edge8" class="edge"><title>5&#45;&gt;14</title>
<path fill="none" stroke="#c1a57b" d="M251.464,-321.088C273.75,-332.672 315.758,-353.052 354,-363.5 361.623,-365.583 369.694,-367.306 377.777,-368.732"/>
<polygon fill="#c1a57b" stroke="#c1a57b" points="377.586,-370.474 382.808,-369.582 378.169,-367.023 377.586,-370.474"/>
<text text-anchor="middle" x="333.5" y="-361.5" font-family="STZhongsong" font-size="5.00">100.0%</text>
</g>
<!-- 11 -->
<g id="node10" class="node"><title>11</title>
<polygon fill="#768690" stroke="#768690" points="519,-363 379,-363 379,-346 519,-346 519,-363"/>
<text text-anchor="middle" x="449" y="-352.6" font-family="STZhongsong" font-size="8.00" fill="#ffffff">上饶市游好世界科技股份有限公司</text>
</g>
<!-- 5&#45;&gt;11 -->
<g id="edge9" class="edge"><title>5&#45;&gt;11</title>
<path fill="none" stroke="#c1a57b" d="M264.985,-321.023C288.827,-327.657 323.35,-336.686 354,-342.5 360.376,-343.709 367.019,-344.831 373.695,-345.863"/>
<polygon fill="#c1a57b" stroke="#c1a57b" points="373.597,-347.618 378.802,-346.635 374.12,-344.158 373.597,-347.618"/>
<text text-anchor="middle" x="333.5" y="-341.5" font-family="STZhongsong" font-size="5.00">32.0%</text>
</g>
<!-- 23 -->
<g id="node11" class="node"><title>23</title>
<polygon fill="#768690" stroke="#768690" points="523,-342 375,-342 375,-325 523,-325 523,-342"/>
<text text-anchor="middle" x="449" y="-331.6" font-family="STZhongsong" font-size="8.00" fill="#ffffff">华熙上旅全域文化旅游发展有限公司</text>
</g>
<!-- 5&#45;&gt;23 -->
<g id="edge10" class="edge"><title>5&#45;&gt;23</title>
<path fill="none" stroke="#c1a57b" d="M304.786,-319.347C325.53,-321.397 348.421,-323.659 369.701,-325.762"/>
<polygon fill="#c1a57b" stroke="#c1a57b" points="369.639,-327.514 374.786,-326.265 369.983,-324.031 369.639,-327.514"/>
<text text-anchor="middle" x="333.5" y="-324.5" font-family="STZhongsong" font-size="5.00">33.0%</text>
</g>
<!-- 32 -->
<g id="node12" class="node"><title>32</title>
<polygon fill="#768690" stroke="#768690" points="515,-321 383,-321 383,-304 515,-304 515,-321"/>
<text text-anchor="middle" x="449" y="-310.6" font-family="STZhongsong" font-size="8.00" fill="#ffffff">华熙上旅国际文化产业有限公司</text>
</g>
<!-- 5&#45;&gt;32 -->
<g id="edge11" class="edge"><title>5&#45;&gt;32</title>
<path fill="none" stroke="#c1a57b" d="M304.786,-312.5C328.095,-312.5 354.114,-312.5 377.514,-312.5"/>
<polygon fill="#c1a57b" stroke="#c1a57b" points="377.776,-314.25 382.776,-312.5 377.776,-310.75 377.776,-314.25"/>
<text text-anchor="middle" x="333.5" y="-314.5" font-family="STZhongsong" font-size="5.00">33.0%</text>
</g>
<!-- 3 -->
<g id="node13" class="node"><title>3</title>
<polygon fill="#768690" stroke="#768690" points="519,-300 379,-300 379,-283 519,-283 519,-300"/>
<text text-anchor="middle" x="449" y="-289.6" font-family="STZhongsong" font-size="8.00" fill="#ffffff">万年县旅游产业发展股份有限公司</text>
</g>
<!-- 5&#45;&gt;3 -->
<g id="edge12" class="edge"><title>5&#45;&gt;3</title>
<path fill="none" stroke="#c1a57b" d="M304.786,-305.653C326.856,-303.472 351.356,-301.051 373.762,-298.836"/>
<polygon fill="#c1a57b" stroke="#c1a57b" points="374.004,-300.571 378.808,-298.338 373.66,-297.088 374.004,-300.571"/>
<text text-anchor="middle" x="333.5" y="-304.5" font-family="STZhongsong" font-size="5.00">37.0%</text>
</g>
<!-- 20 -->
<g id="node14" class="node"><title>20</title>
<polygon fill="#768690" stroke="#768690" points="519,-279 379,-279 379,-262 519,-262 519,-279"/>
<text text-anchor="middle" x="449" y="-268.6" font-family="STZhongsong" font-size="8.00" fill="#ffffff">江西汉氏联合干细胞科技有限公司</text>
</g>
<!-- 5&#45;&gt;20 -->
<g id="edge13" class="edge"><title>5&#45;&gt;20</title>
<path fill="none" stroke="#c1a57b" d="M266.496,-303.99C290.293,-297.682 324.042,-289.222 354,-283.5 360.903,-282.182 368.115,-280.942 375.342,-279.791"/>
<polygon fill="#c1a57b" stroke="#c1a57b" points="375.675,-281.51 380.344,-279.008 375.133,-278.052 375.675,-281.51"/>
<text text-anchor="middle" x="333.5" y="-291.5" font-family="STZhongsong" font-size="5.00">30.0%</text>
</g>
<!-- 24 -->
<g id="node15" class="node"><title>24</title>
<polygon fill="#768690" stroke="#768690" points="519,-258 379,-258 379,-241 519,-241 519,-258"/>
<text text-anchor="middle" x="449" y="-247.6" font-family="STZhongsong" font-size="8.00" fill="#ffffff">婺源县旅游产业发展集团有限公司</text>
</g>
<!-- 5&#45;&gt;24 -->
<g id="edge14" class="edge"><title>5&#45;&gt;24</title>
<path fill="none" stroke="#c1a57b" d="M251.883,-303.956C274.307,-292.645 316.107,-272.92 354,-262.5 360.329,-260.76 366.965,-259.246 373.659,-257.931"/>
<polygon fill="#c1a57b" stroke="#c1a57b" points="374.197,-259.61 378.786,-256.963 373.548,-256.171 374.197,-259.61"/>
<text text-anchor="middle" x="333.5" y="-272.5" font-family="STZhongsong" font-size="5.00">37.0%</text>
</g>
<!-- 22 -->
<g id="node17" class="node"><title>22</title>
<polygon fill="#768690" stroke="#768690" points="519,-237 379,-237 379,-220 519,-220 519,-237"/>
<text text-anchor="middle" x="449" y="-226.6" font-family="STZhongsong" font-size="8.00" fill="#ffffff">上饶市全域文化旅游股份有限公司</text>
</g>
<!-- 5&#45;&gt;22 -->
<g id="edge16" class="edge"><title>5&#45;&gt;22</title>
<path fill="none" stroke="#c1a57b" d="M246.148,-303.934C266.003,-288.483 310.612,-256.191 354,-241.5 360.28,-239.374 366.908,-237.595 373.62,-236.106"/>
<polygon fill="#c1a57b" stroke="#c1a57b" points="374.232,-237.766 378.764,-235.024 373.511,-234.341 374.232,-237.766"/>
<text text-anchor="middle" x="333.5" y="-254.5" font-family="STZhongsong" font-size="5.00">99.5%</text>
</g>
<!-- 30 -->
<g id="node18" class="node"><title>30</title>
<polygon fill="#768690" stroke="#768690" points="511,-216 387,-216 387,-199 511,-199 511,-216"/>
<text text-anchor="middle" x="449" y="-205.6" font-family="STZhongsong" font-size="8.00" fill="#ffffff">上饶市信江旅游股份有限公司</text>
</g>
<!-- 5&#45;&gt;30 -->
<g id="edge17" class="edge"><title>5&#45;&gt;30</title>
<path fill="none" stroke="#c1a57b" d="M243.009,-303.79C260.273,-284.488 305.085,-238.411 354,-220.5 362.827,-217.268 372.388,-214.831 381.918,-212.995"/>
<polygon fill="#c1a57b" stroke="#c1a57b" points="382.289,-214.706 386.895,-212.089 381.662,-211.263 382.289,-214.706"/>
<text text-anchor="middle" x="333.5" y="-236.5" font-family="STZhongsong" font-size="5.00">37.0%</text>
</g>
<!-- 21 -->
<g id="node19" class="node"><title>21</title>
<polygon fill="#768690" stroke="#768690" points="511,-195 387,-195 387,-178 511,-178 511,-195"/>
<text text-anchor="middle" x="449" y="-184.6" font-family="STZhongsong" font-size="8.00" fill="#ffffff">上饶市上旅规划设计有限公司</text>
</g>
<!-- 5&#45;&gt;21 -->
<g id="edge18" class="edge"><title>5&#45;&gt;21</title>
<path fill="none" stroke="#c1a57b" d="M243.672,-303.801C257.832,-288.716 287.83,-256.706 313,-229.5 317.913,-224.189 318.395,-222.075 324,-217.5 336.045,-207.667 339.335,-204.67 354,-199.5 362.865,-196.375 372.447,-193.997 381.987,-192.189"/>
<polygon fill="#c1a57b" stroke="#c1a57b" points="382.357,-193.9 386.968,-191.294 381.738,-190.456 382.357,-193.9"/>
<text text-anchor="middle" x="333.5" y="-219.5" font-family="STZhongsong" font-size="5.00">100.0%</text>
</g>
<!-- 16 -->
<g id="node20" class="node"><title>16</title>
<polygon fill="#768690" stroke="#768690" points="519,-174 379,-174 379,-157 519,-157 519,-174"/>
<text text-anchor="middle" x="449" y="-163.6" font-family="STZhongsong" font-size="8.00" fill="#ffffff">三清山旅游产业发展集团有限公司</text>
</g>
<!-- 5&#45;&gt;16 -->
<g id="edge19" class="edge"><title>5&#45;&gt;16</title>
<path fill="none" stroke="#c1a57b" d="M246.043,-303.896C262.535,-289.916 294.46,-260.68 313,-229.5 320.901,-216.212 314.326,-208.559 324,-196.5 333.73,-184.371 339.335,-183.67 354,-178.5 360.315,-176.274 366.993,-174.427 373.761,-172.895"/>
<polygon fill="#c1a57b" stroke="#c1a57b" points="374.427,-174.542 378.95,-171.784 373.694,-171.12 374.427,-174.542"/>
<text text-anchor="middle" x="333.5" y="-198.5" font-family="STZhongsong" font-size="5.00">51.0%</text>
</g>
<!-- 6 -->
<g id="node16" class="node"><title>6</title>
<polygon fill="#768690" stroke="#768690" points="506.5,-153 391.5,-153 391.5,-136 506.5,-136 506.5,-153"/>
<text text-anchor="middle" x="449" y="-142.6" font-family="STZhongsong" font-size="8.00" fill="#ffffff">上饶市龙潭湖投资有限公司</text>
</g>
<!-- 10&#45;&gt;6 -->
<g id="edge15" class="edge"><title>10&#45;&gt;6</title>
<path fill="none" stroke="#c1a57b" d="M244.921,-209.563C260.164,-195.707 291.793,-169.402 324,-157.5 343.56,-150.272 365.958,-146.643 386.289,-144.928"/>
<polygon fill="#c1a57b" stroke="#c1a57b" points="386.56,-146.662 391.41,-144.532 386.29,-143.173 386.56,-146.662"/>
<text text-anchor="middle" x="333.5" y="-159.5" font-family="STZhongsong" font-size="5.00">100.0%</text>
</g>
<!-- 26 -->
<g id="node21" class="node"><title>26</title>
<polygon fill="#a0b1b8" stroke="#a0b1b8" points="737.5,-332 597.5,-332 597.5,-315 737.5,-315 737.5,-332"/>
<text text-anchor="middle" x="667.5" y="-321.6" font-family="STZhongsong" font-size="8.00" fill="#ffffff">江西上饶三清山金沙索道有限公司</text>
</g>
<!-- 16&#45;&gt;26 -->
<g id="edge20" class="edge"><title>16&#45;&gt;26</title>
<path fill="none" stroke="#c1a57b" d="M519.387,-164.268C528.667,-166.999 537.281,-171.476 544,-178.5 562.204,-197.532 540.129,-274.765 555,-296.5 563.74,-309.275 577.45,-316.781 592.305,-321.041"/>
<polygon fill="#c1a57b" stroke="#c1a57b" points="592.102,-322.797 597.382,-322.364 592.985,-319.41 592.102,-322.797"/>
<text text-anchor="middle" x="564.5" y="-314.5" font-family="STZhongsong" font-size="5.00">26.7%</text>
</g>
<!-- 0 -->
<g id="node22" class="node"><title>0</title>
<polygon fill="#a0b1b8" stroke="#a0b1b8" points="737.5,-311 597.5,-311 597.5,-294 737.5,-294 737.5,-311"/>
<text text-anchor="middle" x="667.5" y="-300.6" font-family="STZhongsong" font-size="8.00" fill="#ffffff">上饶市印象旅游产业发展有限公司</text>
</g>
<!-- 16&#45;&gt;0 -->
<g id="edge21" class="edge"><title>16&#45;&gt;0</title>
<path fill="none" stroke="#c1a57b" d="M519.248,-164.402C528.547,-167.115 537.203,-171.551 544,-178.5 558.86,-193.693 543.26,-255.785 555,-273.5 563.637,-286.532 577.394,-294.31 592.34,-298.826"/>
<polygon fill="#c1a57b" stroke="#c1a57b" points="592.163,-300.593 597.448,-300.236 593.094,-297.219 592.163,-300.593"/>
<text text-anchor="middle" x="564.5" y="-291.5" font-family="STZhongsong" font-size="5.00">40.0%</text>
</g>
<!-- 33 -->
<g id="node23" class="node"><title>33</title>
<polygon fill="#a0b1b8" stroke="#a0b1b8" points="741.5,-290 593.5,-290 593.5,-273 741.5,-273 741.5,-290"/>
<text text-anchor="middle" x="667.5" y="-279.6" font-family="STZhongsong" font-size="8.00" fill="#ffffff">上饶市三清山物业管理有限责任公司</text>
</g>
<!-- 16&#45;&gt;33 -->
<g id="edge22" class="edge"><title>16&#45;&gt;33</title>
<path fill="none" stroke="#c1a57b" d="M519.026,-164.623C528.354,-167.307 537.078,-171.676 544,-178.5 567.052,-201.227 537.289,-223.403 555,-250.5 562.832,-262.483 574.942,-270.197 588.341,-275.09"/>
<polygon fill="#c1a57b" stroke="#c1a57b" points="588.033,-276.833 593.33,-276.768 589.149,-273.515 588.033,-276.833"/>
<text text-anchor="middle" x="564.5" y="-268.5" font-family="STZhongsong" font-size="5.00">99.9%</text>
</g>
<!-- 1 -->
<g id="node24" class="node"><title>1</title>
<polygon fill="#a0b1b8" stroke="#a0b1b8" points="750,-269 585,-269 585,-252 750,-252 750,-269"/>
<text text-anchor="middle" x="667.5" y="-258.6" font-family="STZhongsong" font-size="8.00" fill="#ffffff">上饶市三清山田园牧歌景区发展有限公司</text>
</g>
<!-- 16&#45;&gt;1 -->
<g id="edge23" class="edge"><title>16&#45;&gt;1</title>
<path fill="none" stroke="#c1a57b" d="M519.139,-165.138C528.339,-167.78 536.995,-172.001 544,-178.5 561,-194.27 541.729,-210.485 555,-229.5 564.033,-242.442 570.204,-243.009 585,-248.5 586.961,-249.228 588.964,-249.912 590.997,-250.554"/>
<polygon fill="#c1a57b" stroke="#c1a57b" points="590.502,-252.232 595.793,-251.979 591.499,-248.877 590.502,-252.232"/>
<text text-anchor="middle" x="564.5" y="-245.5" font-family="STZhongsong" font-size="5.00">49.0%</text>
</g>
<!-- 35 -->
<g id="node25" class="node"><title>35</title>
<polygon fill="#a0b1b8" stroke="#a0b1b8" points="733.5,-248 601.5,-248 601.5,-231 733.5,-231 733.5,-248"/>
<text text-anchor="middle" x="667.5" y="-237.6" font-family="STZhongsong" font-size="8.00" fill="#ffffff">上饶市三清山水务有限责任公司</text>
</g>
<!-- 16&#45;&gt;35 -->
<g id="edge24" class="edge"><title>16&#45;&gt;35</title>
<path fill="none" stroke="#c1a57b" d="M519.321,-166.305C528.278,-168.832 536.817,-172.71 544,-178.5 555.057,-187.412 546.083,-197.447 555,-208.5 564.91,-220.784 570.204,-222.009 585,-227.5 588.677,-228.865 592.501,-230.075 596.399,-231.147"/>
<polygon fill="#c1a57b" stroke="#c1a57b" points="596.091,-232.875 601.37,-232.434 596.968,-229.487 596.091,-232.875"/>
<text text-anchor="middle" x="564.5" y="-224.5" font-family="STZhongsong" font-size="5.00">70.0%</text>
</g>
<!-- 15 -->
<g id="node26" class="node"><title>15</title>
<polygon fill="#a0b1b8" stroke="#a0b1b8" points="721,-227 614,-227 614,-210 721,-210 721,-227"/>
<text text-anchor="middle" x="667.5" y="-216.6" font-family="STZhongsong" font-size="8.00" fill="#ffffff">江西三清山索道有限公司</text>
</g>
<!-- 16&#45;&gt;15 -->
<g id="edge25" class="edge"><title>16&#45;&gt;15</title>
<path fill="none" stroke="#c1a57b" d="M519.488,-169.527C528.031,-171.621 536.414,-174.52 544,-178.5 550.407,-181.861 549.282,-186.067 555,-190.5 566.943,-199.758 570.647,-201.774 585,-206.5 592.537,-208.982 600.636,-210.951 608.698,-212.514"/>
<polygon fill="#c1a57b" stroke="#c1a57b" points="608.474,-214.252 613.708,-213.436 609.107,-210.81 608.474,-214.252"/>
<text text-anchor="middle" x="564.5" y="-203.5" font-family="STZhongsong" font-size="5.00">7.0%</text>
</g>
<!-- 7 -->
<g id="node27" class="node"><title>7</title>
<polygon fill="#a0b1b8" stroke="#a0b1b8" points="725,-206 610,-206 610,-189 725,-189 725,-206"/>
<text text-anchor="middle" x="667.5" y="-195.6" font-family="STZhongsong" font-size="8.00" fill="#ffffff">上饶市大三清酒店有限公司</text>
</g>
<!-- 16&#45;&gt;7 -->
<g id="edge26" class="edge"><title>16&#45;&gt;7</title>
<path fill="none" stroke="#c1a57b" d="M513.497,-174.003C523.705,-175.45 534.15,-176.978 544,-178.5 562.269,-181.322 566.743,-182.598 585,-185.5 591.416,-186.52 598.12,-187.556 604.81,-188.569"/>
<polygon fill="#c1a57b" stroke="#c1a57b" points="604.712,-190.324 609.917,-189.34 605.234,-186.864 604.712,-190.324"/>
<text text-anchor="middle" x="564.5" y="-185.5" font-family="STZhongsong" font-size="5.00">100.0%</text>
</g>
<!-- 13 -->
<g id="node28" class="node"><title>13</title>
<polygon fill="#a0b1b8" stroke="#a0b1b8" points="733.5,-185 601.5,-185 601.5,-168 733.5,-168 733.5,-185"/>
<text text-anchor="middle" x="667.5" y="-174.6" font-family="STZhongsong" font-size="8.00" fill="#ffffff">上饶市微途国际旅行社有限公司</text>
</g>
<!-- 16&#45;&gt;13 -->
<g id="edge27" class="edge"><title>16&#45;&gt;13</title>
<path fill="none" stroke="#c1a57b" d="M519.097,-169.011C543.706,-170.261 571.434,-171.67 596.147,-172.925"/>
<polygon fill="#c1a57b" stroke="#c1a57b" points="596.29,-174.685 601.372,-173.191 596.467,-171.189 596.29,-174.685"/>
<text text-anchor="middle" x="564.5" y="-173.5" font-family="STZhongsong" font-size="5.00">100.0%</text>
</g>
<!-- 18 -->
<g id="node29" class="node"><title>18</title>
<polygon fill="#a0b1b8" stroke="#a0b1b8" points="741.5,-164 593.5,-164 593.5,-147 741.5,-147 741.5,-164"/>
<text text-anchor="middle" x="667.5" y="-153.6" font-family="STZhongsong" font-size="8.00" fill="#ffffff">上饶市三清山园林建设有限责任公司</text>
</g>
<!-- 16&#45;&gt;18 -->
<g id="edge28" class="edge"><title>16&#45;&gt;18</title>
<path fill="none" stroke="#c1a57b" d="M519.097,-162.308C541.072,-161.293 565.534,-160.164 588.115,-159.121"/>
<polygon fill="#c1a57b" stroke="#c1a57b" points="588.29,-160.864 593.204,-158.885 588.129,-157.368 588.29,-160.864"/>
<text text-anchor="middle" x="564.5" y="-162.5" font-family="STZhongsong" font-size="5.00">100.0%</text>
</g>
<!-- 27 -->
<g id="node30" class="node"><title>27</title>
<polygon fill="#a0b1b8" stroke="#a0b1b8" points="746,-143 589,-143 589,-126 746,-126 746,-143"/>
<text text-anchor="middle" x="667.5" y="-132.6" font-family="STZhongsong" font-size="8.00" fill="#ffffff">江西大美三清山旅游文化股份有限公司</text>
</g>
<!-- 16&#45;&gt;27 -->
<g id="edge29" class="edge"><title>16&#45;&gt;27</title>
<path fill="none" stroke="#c1a57b" d="M519.093,-157.017C527.491,-155.886 535.945,-154.701 544,-153.5 562.284,-150.773 566.743,-149.402 585,-146.5 590.515,-145.623 596.244,-144.735 601.993,-143.859"/>
<polygon fill="#c1a57b" stroke="#c1a57b" points="602.592,-145.538 607.273,-143.058 602.067,-142.078 602.592,-145.538"/>
<text text-anchor="middle" x="564.5" y="-153.5" font-family="STZhongsong" font-size="5.00">30.0%</text>
</g>
<!-- 29 -->
<g id="node31" class="node"><title>29</title>
<polygon fill="#a0b1b8" stroke="#a0b1b8" points="750,-122 585,-122 585,-105 750,-105 750,-122"/>
<text text-anchor="middle" x="667.5" y="-111.6" font-family="STZhongsong" font-size="8.00" fill="#ffffff">上饶市三清山景区开发建设有限责任公司</text>
</g>
<!-- 16&#45;&gt;29 -->
<g id="edge30" class="edge"><title>16&#45;&gt;29</title>
<path fill="none" stroke="#c1a57b" d="M519.469,-162.28C528.015,-160.266 536.404,-157.435 544,-153.5 550.424,-150.172 549.282,-145.933 555,-141.5 566.943,-132.242 570.647,-130.226 585,-125.5 587.339,-124.73 589.732,-124.009 592.162,-123.334"/>
<polygon fill="#c1a57b" stroke="#c1a57b" points="592.801,-124.976 597.193,-122.013 591.913,-121.59 592.801,-124.976"/>
<text text-anchor="middle" x="564.5" y="-143.5" font-family="STZhongsong" font-size="5.00">100.0%</text>
</g>
<!-- 28 -->
<g id="node32" class="node"><title>28</title>
<polygon fill="#a0b1b8" stroke="#a0b1b8" points="750,-101 585,-101 585,-84 750,-84 750,-101"/>
<text text-anchor="middle" x="667.5" y="-90.6" font-family="STZhongsong" font-size="8.00" fill="#ffffff">上饶市三清山玉帘瀑布景区开发有限公司</text>
</g>
<!-- 16&#45;&gt;28 -->
<g id="edge31" class="edge"><title>16&#45;&gt;28</title>
<path fill="none" stroke="#c1a57b" d="M519.284,-165.489C528.247,-163.049 536.797,-159.244 544,-153.5 555.103,-144.646 546.083,-134.553 555,-123.5 564.91,-111.216 570.204,-109.991 585,-104.5 586.961,-103.772 588.964,-103.088 590.997,-102.446"/>
<polygon fill="#c1a57b" stroke="#c1a57b" points="591.499,-104.123 595.793,-101.021 590.502,-100.768 591.499,-104.123"/>
<text text-anchor="middle" x="564.5" y="-125.5" font-family="STZhongsong" font-size="5.00">100.0%</text>
</g>
<!-- 9 -->
<g id="node33" class="node"><title>9</title>
<polygon fill="#a0b1b8" stroke="#a0b1b8" points="741.5,-80 593.5,-80 593.5,-63 741.5,-63 741.5,-80"/>
<text text-anchor="middle" x="667.5" y="-69.6" font-family="STZhongsong" font-size="8.00" fill="#ffffff">上饶市三清山旅游观光客运有限公司</text>
</g>
<!-- 16&#45;&gt;9 -->
<g id="edge32" class="edge"><title>16&#45;&gt;9</title>
<path fill="none" stroke="#c1a57b" d="M519.096,-166.649C528.301,-164.098 536.971,-159.953 544,-153.5 561.082,-137.819 541.729,-121.515 555,-102.5 564.033,-89.5579 570.204,-88.9914 585,-83.5 586.961,-82.7722 588.964,-82.0884 590.997,-81.446"/>
<polygon fill="#c1a57b" stroke="#c1a57b" points="591.499,-83.1227 595.793,-80.0207 590.502,-79.7677 591.499,-83.1227"/>
<text text-anchor="middle" x="564.5" y="-104.5" font-family="STZhongsong" font-size="5.00">100.0%</text>
</g>
<!-- 12 -->
<g id="node34" class="node"><title>12</title>
<polygon fill="#a0b1b8" stroke="#a0b1b8" points="741.5,-59 593.5,-59 593.5,-42 741.5,-42 741.5,-59"/>
<text text-anchor="middle" x="667.5" y="-48.6" font-family="STZhongsong" font-size="8.00" fill="#ffffff">上饶市三清山微途电子商务有限公司</text>
</g>
<!-- 16&#45;&gt;12 -->
<g id="edge33" class="edge"><title>16&#45;&gt;12</title>
<path fill="none" stroke="#c1a57b" d="M519.454,-167.028C528.61,-164.424 537.17,-160.164 544,-153.5 567.17,-130.894 537.289,-108.597 555,-81.5 562.832,-69.5172 574.942,-61.8031 588.341,-56.9099"/>
<polygon fill="#c1a57b" stroke="#c1a57b" points="589.149,-58.4846 593.33,-55.2321 588.033,-55.1671 589.149,-58.4846"/>
<text text-anchor="middle" x="564.5" y="-83.5" font-family="STZhongsong" font-size="5.00">100.0%</text>
</g>
<!-- 25 -->
<g id="node35" class="node"><title>25</title>
<polygon fill="#a0b1b8" stroke="#a0b1b8" points="741.5,-38 593.5,-38 593.5,-21 741.5,-21 741.5,-38"/>
<text text-anchor="middle" x="667.5" y="-27.6" font-family="STZhongsong" font-size="8.00" fill="#ffffff">上饶市三清山景区服务管理有限公司</text>
</g>
<!-- 16&#45;&gt;25 -->
<g id="edge34" class="edge"><title>16&#45;&gt;25</title>
<path fill="none" stroke="#c1a57b" d="M519.201,-167.383C528.506,-164.763 537.177,-160.404 544,-153.5 558.939,-138.385 543.26,-76.2151 555,-58.5 562.873,-46.6207 575,-39.1075 588.404,-34.4502"/>
<polygon fill="#c1a57b" stroke="#c1a57b" points="589.161,-36.0457 593.395,-32.8608 588.099,-32.7107 589.161,-36.0457"/>
<text text-anchor="middle" x="564.5" y="-60.5" font-family="STZhongsong" font-size="5.00">100.0%</text>
</g>
<!-- 4 -->
<g id="node36" class="node"><title>4</title>
<polygon fill="#a0b1b8" stroke="#a0b1b8" points="725,-17 610,-17 610,-0 725,-0 725,-17"/>
<text text-anchor="middle" x="667.5" y="-6.6" font-family="STZhongsong" font-size="8.00" fill="#ffffff">上饶市三清山票务有限公司</text>
</g>
<!-- 16&#45;&gt;4 -->
<g id="edge35" class="edge"><title>16&#45;&gt;4</title>
<path fill="none" stroke="#c1a57b" d="M519.338,-167.517C528.625,-164.879 537.254,-160.479 544,-153.5 562.303,-134.564 540.129,-57.2352 555,-35.5 566.198,-19.1342 585.55,-11.4143 605.021,-8.09074"/>
<polygon fill="#c1a57b" stroke="#c1a57b" points="605.289,-9.82019 609.969,-7.33789 604.763,-6.36001 605.289,-9.82019"/>
<text text-anchor="middle" x="564.5" y="-37.5" font-family="STZhongsong" font-size="5.00">100.0%</text>
</g>
</g>
</svg>
