<?xml version="1.0" encoding="UTF-8" standalone="no"?>
<!DOCTYPE svg PUBLIC "-//W3C//DTD SVG 1.1//EN"
 "http://www.w3.org/Graphics/SVG/1.1/DTD/svg11.dtd">
<!-- Generated by graphviz version 2.38.0 (20140413.2041)
 -->
<!-- Title: 高管兼任 Pages: 1 -->
<svg width="280pt" height="348pt"
 viewBox="0.00 0.00 280.00 348.00" xmlns="http://www.w3.org/2000/svg" xmlns:xlink="http://www.w3.org/1999/xlink">
<g id="graph0" class="graph" transform="scale(1 1) rotate(0) translate(4 344)">
<title>高管兼任</title>
<polygon fill="white" stroke="none" points="-4,4 -4,-344 276,-344 276,4 -4,4"/>
<!-- 张三 -->
<g id="node1" class="node"><title>张三</title>
<ellipse fill="#61717d" stroke="#61717d" cx="141.197" cy="-113.367" rx="21.4286" ry="11.1304"/>
<text text-anchor="middle" x="141.197" y="-111.767" font-family="STZhongsong" font-size="7.00" fill="#ffffff">张三</text>
</g>
<!-- 企业01 -->
<g id="node2" class="node"><title>企业01</title>
<polygon fill="#ffffff" stroke="#61717d" points="180.635,-171.226 141.635,-171.226 141.635,-153.226 180.635,-153.226 180.635,-171.226"/>
<text text-anchor="middle" x="161.135" y="-160.626" font-family="STZhongsong" font-size="7.00" fill="#61717d">企业01</text>
</g>
<!-- 张三&#45;&gt;企业01 -->
<g id="edge1" class="edge"><title>张三&#45;&gt;企业01</title>
<path fill="none" stroke="#c1a57b" d="M145.822,-124.699C148.663,-131.662 152.327,-140.64 155.358,-148.069"/>
<polygon fill="#c1a57b" stroke="#c1a57b" points="153.829,-148.953 157.338,-152.921 157.069,-147.63 153.829,-148.953"/>
<text text-anchor="middle" x="141.09" y="-145.584" font-family="STZhongsong" font-size="6.00">董事长</text>
<text text-anchor="middle" x="141.09" y="-138.584" font-family="STZhongsong" font-size="6.00">总经理</text>
</g>
<!-- 企业02 -->
<g id="node3" class="node"><title>企业02</title>
<polygon fill="#ffffff" stroke="#61717d" points="191.249,-41.0756 152.249,-41.0756 152.249,-23.0756 191.249,-23.0756 191.249,-41.0756"/>
<text text-anchor="middle" x="171.749" y="-30.4756" font-family="STZhongsong" font-size="7.00" fill="#61717d">企业02</text>
</g>
<!-- 张三&#45;&gt;企业02 -->
<g id="edge2" class="edge"><title>张三&#45;&gt;企业02</title>
<path fill="none" stroke="#c1a57b" d="M145.445,-102.064C150.925,-87.4832 160.459,-62.1155 166.419,-46.2567"/>
<polygon fill="#c1a57b" stroke="#c1a57b" points="168.172,-46.5684 168.293,-41.2723 164.895,-45.337 168.172,-46.5684"/>
<text text-anchor="middle" x="143.432" y="-76.3603" font-family="STZhongsong" font-size="6.00">副董事长</text>
</g>
<!-- 李四 -->
<g id="node4" class="node"><title>李四</title>
<ellipse fill="#61717d" stroke="#61717d" cx="162.559" cy="-211.284" rx="21.4286" ry="11.1304"/>
<text text-anchor="middle" x="162.559" y="-209.684" font-family="STZhongsong" font-size="7.00" fill="#ffffff">李四</text>
</g>
<!-- 李四&#45;&gt;企业01 -->
<g id="edge3" class="edge"><title>李四&#45;&gt;企业01</title>
<path fill="none" stroke="#c1a57b" d="M162.229,-199.905C162.027,-192.958 161.768,-184.013 161.552,-176.582"/>
<polygon fill="#c1a57b" stroke="#c1a57b" points="163.292,-176.199 161.397,-171.252 159.793,-176.301 163.292,-176.199"/>
<text text-anchor="middle" x="155.39" y="-190.443" font-family="STZhongsong" font-size="6.00">董事</text>
</g>
<!-- 企业03 -->
<g id="node5" class="node"><title>企业03</title>
<polygon fill="#ffffff" stroke="#61717d" points="255.387,-216.355 216.387,-216.355 216.387,-198.355 255.387,-198.355 255.387,-216.355"/>
<text text-anchor="middle" x="235.887" y="-205.755" font-family="STZhongsong" font-size="7.00" fill="#61717d">企业03</text>
</g>
<!-- 李四&#45;&gt;企业03 -->
<g id="edge4" class="edge"><title>李四&#45;&gt;企业03</title>
<path fill="none" stroke="#c1a57b" d="M183.768,-210.147C192.175,-209.697 201.909,-209.175 210.672,-208.706"/>
<polygon fill="#c1a57b" stroke="#c1a57b" points="211.084,-210.436 215.983,-208.421 210.896,-206.941 211.084,-210.436"/>
<text text-anchor="middle" x="190.72" y="-211.627" font-family="STZhongsong" font-size="6.00">监事</text>
</g>
<!-- 王五 -->
<g id="node6" class="node"><title>王五</title>
<ellipse fill="#61717d" stroke="#61717d" cx="182.845" cy="-73.4308" rx="21.4286" ry="11.1304"/>
<text text-anchor="middle" x="182.845" y="-71.8308" font-family="STZhongsong" font-size="7.00" fill="#ffffff">王五</text>
</g>
<!-- 王五&#45;&gt;企业01 -->
<g id="edge5" class="edge"><title>王五&#45;&gt;企业01</title>
<path fill="none" stroke="#c1a57b" d="M180.095,-84.6767C176.145,-100.832 168.869,-130.594 164.57,-148.177"/>
<polygon fill="#c1a57b" stroke="#c1a57b" points="162.826,-147.941 163.339,-153.214 166.226,-148.772 162.826,-147.941"/>
<text text-anchor="middle" x="178.833" y="-118.627" font-family="STZhongsong" font-size="6.00">董事</text>
</g>
<!-- 企业04 -->
<g id="node7" class="node"><title>企业04</title>
<polygon fill="#ffffff" stroke="#61717d" points="271.829,-68.5069 232.829,-68.5069 232.829,-50.5069 271.829,-50.5069 271.829,-68.5069"/>
<text text-anchor="middle" x="252.329" y="-57.9069" font-family="STZhongsong" font-size="7.00" fill="#61717d">企业04</text>
</g>
<!-- 王五&#45;&gt;企业04 -->
<g id="edge6" class="edge"><title>王五&#45;&gt;企业04</title>
<path fill="none" stroke="#c1a57b" d="M202.943,-69.4034C210.643,-67.8603 219.519,-66.0818 227.603,-64.4618"/>
<polygon fill="#c1a57b" stroke="#c1a57b" points="227.958,-66.1755 232.517,-63.4771 227.27,-62.7437 227.958,-66.1755"/>
<text text-anchor="middle" x="215.273" y="-62.1326" font-family="STZhongsong" font-size="6.00">法定代表人</text>
<text text-anchor="middle" x="215.273" y="-55.1326" font-family="STZhongsong" font-size="6.00">总经理</text>
<text text-anchor="middle" x="215.273" y="-48.1326" font-family="STZhongsong" font-size="6.00">执行董事</text>
</g>
<!-- 企业05 -->
<g id="node8" class="node"><title>企业05</title>
<polygon fill="#ffffff" stroke="#61717d" points="143.428,-28.6994 104.428,-28.6994 104.428,-10.6994 143.428,-10.6994 143.428,-28.6994"/>
<text text-anchor="middle" x="123.928" y="-18.0994" font-family="STZhongsong" font-size="7.00" fill="#61717d">企业05</text>
</g>
<!-- 王五&#45;&gt;企业05 -->
<g id="edge7" class="edge"><title>王五&#45;&gt;企业05</title>
<path fill="none" stroke="#c1a57b" d="M172.039,-63.5756C162.419,-54.8029 148.292,-41.9193 137.833,-32.3806"/>
<polygon fill="#c1a57b" stroke="#c1a57b" points="138.755,-30.8524 133.881,-28.7762 136.396,-33.4385 138.755,-30.8524"/>
<text text-anchor="middle" x="139.436" y="-64.1781" font-family="STZhongsong" font-size="6.00">法定代表人</text>
<text text-anchor="middle" x="139.436" y="-57.1781" font-family="STZhongsong" font-size="6.00">总经理</text>
<text text-anchor="middle" x="139.436" y="-50.1781" font-family="STZhongsong" font-size="6.00">执行董事</text>
</g>
<!-- 宋六 -->
<g id="node9" class="node"><title>宋六</title>
<ellipse fill="#61717d" stroke="#61717d" cx="85.7087" cy="-189.446" rx="21.4286" ry="11.1304"/>
<text text-anchor="middle" x="85.7087" y="-187.846" font-family="STZhongsong" font-size="7.00" fill="#ffffff">宋六</text>
</g>
<!-- 宋六&#45;&gt;企业01 -->
<g id="edge8" class="edge"><title>宋六&#45;&gt;企业01</title>
<path fill="none" stroke="#c1a57b" d="M103.584,-182.995C113.482,-179.423 125.928,-174.931 136.712,-171.04"/>
<polygon fill="#c1a57b" stroke="#c1a57b" points="137.426,-172.643 141.535,-169.299 136.238,-169.35 137.426,-172.643"/>
<text text-anchor="middle" x="113.648" y="-179.217" font-family="STZhongsong" font-size="6.00">监事</text>
</g>
<!-- 刘甲 -->
<g id="node10" class="node"><title>刘甲</title>
<ellipse fill="#61717d" stroke="#61717d" cx="237.063" cy="-125.792" rx="21.4286" ry="11.1304"/>
<text text-anchor="middle" x="237.063" y="-124.192" font-family="STZhongsong" font-size="7.00" fill="#ffffff">刘甲</text>
</g>
<!-- 刘甲&#45;&gt;企业01 -->
<g id="edge9" class="edge"><title>刘甲&#45;&gt;企业01</title>
<path fill="none" stroke="#c1a57b" d="M220.961,-133.518C210.354,-138.608 196.294,-145.355 184.469,-151.029"/>
<polygon fill="#c1a57b" stroke="#c1a57b" points="183.643,-149.484 179.892,-153.225 185.157,-152.64 183.643,-149.484"/>
<text text-anchor="middle" x="196.215" y="-144.473" font-family="STZhongsong" font-size="6.00">监事</text>
</g>
<!-- 刘甲&#45;&gt;企业03 -->
<g id="edge10" class="edge"><title>刘甲&#45;&gt;企业03</title>
<path fill="none" stroke="#c1a57b" d="M236.899,-137.133C236.688,-151.762 236.321,-177.215 236.092,-193.127"/>
<polygon fill="#c1a57b" stroke="#c1a57b" points="234.342,-193.103 236.02,-198.128 237.842,-193.153 234.342,-193.103"/>
<text text-anchor="middle" x="229.996" y="-167.33" font-family="STZhongsong" font-size="6.00">监事</text>
</g>
<!-- 刘甲&#45;&gt;企业04 -->
<g id="edge11" class="edge"><title>刘甲&#45;&gt;企业04</title>
<path fill="none" stroke="#c1a57b" d="M239.653,-114.547C242.243,-103.3 246.236,-85.9632 249.047,-73.7581"/>
<polygon fill="#c1a57b" stroke="#c1a57b" points="250.755,-74.1394 250.172,-68.8742 247.344,-73.3538 250.755,-74.1394"/>
<text text-anchor="middle" x="237.85" y="-96.3526" font-family="STZhongsong" font-size="6.00">监事</text>
</g>
<!-- 郑乙 -->
<g id="node11" class="node"><title>郑乙</title>
<ellipse fill="#61717d" stroke="#61717d" cx="239.804" cy="-166.47" rx="21.4286" ry="11.1304"/>
<text text-anchor="middle" x="239.804" y="-164.87" font-family="STZhongsong" font-size="7.00" fill="#ffffff">郑乙</text>
</g>
<!-- 郑乙&#45;&gt;企业01 -->
<g id="edge12" class="edge"><title>郑乙&#45;&gt;企业01</title>
<path fill="none" stroke="#c1a57b" d="M218.308,-165.31C208.313,-164.771 196.368,-164.126 185.988,-163.566"/>
<polygon fill="#c1a57b" stroke="#c1a57b" points="185.808,-161.804 180.721,-163.282 185.619,-165.299 185.808,-161.804"/>
<text text-anchor="middle" x="195.648" y="-166.638" font-family="STZhongsong" font-size="6.00">监事</text>
</g>
<!-- 郑乙&#45;&gt;企业03 -->
<g id="edge13" class="edge"><title>郑乙&#45;&gt;企业03</title>
<path fill="none" stroke="#c1a57b" d="M238.692,-178.076C238.24,-182.792 237.714,-188.285 237.24,-193.23"/>
<polygon fill="#c1a57b" stroke="#c1a57b" points="235.487,-193.175 236.753,-198.319 238.972,-193.509 235.487,-193.175"/>
<text text-anchor="middle" x="231.466" y="-187.853" font-family="STZhongsong" font-size="6.00">监事</text>
</g>
<!-- 杨丙 -->
<g id="node12" class="node"><title>杨丙</title>
<ellipse fill="#61717d" stroke="#61717d" cx="89.7967" cy="-83.7569" rx="21.4286" ry="11.1304"/>
<text text-anchor="middle" x="89.7967" y="-82.1569" font-family="STZhongsong" font-size="7.00" fill="#ffffff">杨丙</text>
</g>
<!-- 杨丙&#45;&gt;企业01 -->
<g id="edge14" class="edge"><title>杨丙&#45;&gt;企业01</title>
<path fill="none" stroke="#c1a57b" d="M99.123,-94.0153C111.965,-108.141 135.101,-133.589 149.194,-149.09"/>
<polygon fill="#c1a57b" stroke="#c1a57b" points="148.254,-150.659 152.913,-153.181 150.844,-148.304 148.254,-150.659"/>
<text text-anchor="middle" x="117.658" y="-123.753" font-family="STZhongsong" font-size="6.00">监事</text>
</g>
<!-- 企业06 -->
<g id="node13" class="node"><title>企业06</title>
<polygon fill="#ffffff" stroke="#61717d" points="38.9163,-68.0783 -0.0837324,-68.0783 -0.0837324,-50.0783 38.9163,-50.0783 38.9163,-68.0783"/>
<text text-anchor="middle" x="19.4163" y="-57.4783" font-family="STZhongsong" font-size="7.00" fill="#61717d">企业06</text>
</g>
<!-- 杨丙&#45;&gt;企业06 -->
<g id="edge15" class="edge"><title>杨丙&#45;&gt;企业06</title>
<path fill="none" stroke="#c1a57b" d="M72.0367,-77.5294C63.5061,-74.5382 53.1473,-70.9059 43.8843,-67.6579"/>
<polygon fill="#c1a57b" stroke="#c1a57b" points="44.4531,-66.0029 39.1557,-65.9998 43.295,-69.3058 44.4531,-66.0029"/>
<text text-anchor="middle" x="42.4605" y="-88.7937" font-family="STZhongsong" font-size="6.00">法定代表人</text>
<text text-anchor="middle" x="42.4605" y="-81.7937" font-family="STZhongsong" font-size="6.00">执行董事</text>
<text text-anchor="middle" x="42.4605" y="-74.7937" font-family="STZhongsong" font-size="6.00">总经理</text>
</g>
<!-- 企业07 -->
<g id="node14" class="node"><title>企业07</title>
<polygon fill="#ffffff" stroke="#61717d" points="88.2455,-17.793 49.2455,-17.793 49.2455,0.207043 88.2455,0.207043 88.2455,-17.793"/>
<text text-anchor="middle" x="68.7455" y="-7.19296" font-family="STZhongsong" font-size="7.00" fill="#61717d">企业07</text>
</g>
<!-- 杨丙&#45;&gt;企业07 -->
<g id="edge16" class="edge"><title>杨丙&#45;&gt;企业07</title>
<path fill="none" stroke="#c1a57b" d="M86.5995,-72.3715C82.8707,-59.0931 76.706,-37.1403 72.685,-22.8215"/>
<polygon fill="#c1a57b" stroke="#c1a57b" points="74.3458,-22.2624 71.3091,-17.9218 70.9761,-23.2087 74.3458,-22.2624"/>
<text text-anchor="middle" x="64.1422" y="-49.7965" font-family="STZhongsong" font-size="6.00">监事会主席</text>
</g>
<!-- 胡丁 -->
<g id="node15" class="node"><title>胡丁</title>
<ellipse fill="#61717d" stroke="#61717d" cx="181.788" cy="-243.656" rx="21.4286" ry="11.1304"/>
<text text-anchor="middle" x="181.788" y="-242.056" font-family="STZhongsong" font-size="7.00" fill="#ffffff">胡丁</text>
</g>
<!-- 胡丁&#45;&gt;企业01 -->
<g id="edge17" class="edge"><title>胡丁&#45;&gt;企业01</title>
<path fill="none" stroke="#c1a57b" d="M178.917,-232.334C175.212,-217.728 168.767,-192.317 164.738,-176.431"/>
<polygon fill="#c1a57b" stroke="#c1a57b" points="166.398,-175.854 163.472,-171.438 163.005,-176.715 166.398,-175.854"/>
<text text-anchor="middle" x="178.327" y="-199.582" font-family="STZhongsong" font-size="6.00">监事</text>
</g>
<!-- 胡丁&#45;&gt;企业03 -->
<g id="edge18" class="edge"><title>胡丁&#45;&gt;企业03</title>
<path fill="none" stroke="#c1a57b" d="M195.161,-234.683C202.002,-230.093 210.426,-224.44 217.834,-219.469"/>
<polygon fill="#c1a57b" stroke="#c1a57b" points="219.115,-220.717 222.292,-216.477 217.165,-217.81 219.115,-220.717"/>
<text text-anchor="middle" x="221.998" y="-243.276" font-family="STZhongsong" font-size="6.00">法定代表人</text>
<text text-anchor="middle" x="221.998" y="-236.276" font-family="STZhongsong" font-size="6.00">总经理</text>
<text text-anchor="middle" x="221.998" y="-229.276" font-family="STZhongsong" font-size="6.00">董事长</text>
</g>
<!-- 企业08 -->
<g id="node16" class="node"><title>企业08</title>
<polygon fill="#ffffff" stroke="#61717d" points="207.573,-339.908 168.573,-339.908 168.573,-321.908 207.573,-321.908 207.573,-339.908"/>
<text text-anchor="middle" x="188.073" y="-329.308" font-family="STZhongsong" font-size="7.00" fill="#61717d">企业08</text>
</g>
<!-- 胡丁&#45;&gt;企业08 -->
<g id="edge19" class="edge"><title>胡丁&#45;&gt;企业08</title>
<path fill="none" stroke="#c1a57b" d="M182.61,-255.063C183.746,-270.833 185.796,-299.295 187.036,-316.511"/>
<polygon fill="#c1a57b" stroke="#c1a57b" points="185.318,-317.022 187.423,-321.884 188.809,-316.771 185.318,-317.022"/>
<text text-anchor="middle" x="178.323" y="-287.987" font-family="STZhongsong" font-size="6.00">监事</text>
</g>
<!-- 企业09 -->
<g id="node17" class="node"><title>企业09</title>
<polygon fill="#ffffff" stroke="#61717d" points="260.289,-315.563 221.289,-315.563 221.289,-297.563 260.289,-297.563 260.289,-315.563"/>
<text text-anchor="middle" x="240.789" y="-304.963" font-family="STZhongsong" font-size="7.00" fill="#61717d">企业09</text>
</g>
<!-- 胡丁&#45;&gt;企业09 -->
<g id="edge20" class="edge"><title>胡丁&#45;&gt;企业09</title>
<path fill="none" stroke="#c1a57b" d="M191.531,-254.044C201.647,-264.83 217.499,-281.731 228.476,-293.435"/>
<polygon fill="#c1a57b" stroke="#c1a57b" points="227.299,-294.738 231.996,-297.188 229.852,-292.344 227.299,-294.738"/>
<text text-anchor="middle" x="203.503" y="-275.939" font-family="STZhongsong" font-size="6.00">监事</text>
</g>
<!-- 企业10 -->
<g id="node18" class="node"><title>企业10</title>
<polygon fill="#ffffff" stroke="#61717d" points="152.626,-322.899 113.626,-322.899 113.626,-304.899 152.626,-304.899 152.626,-322.899"/>
<text text-anchor="middle" x="133.126" y="-312.299" font-family="STZhongsong" font-size="7.00" fill="#61717d">企业10</text>
</g>
<!-- 胡丁&#45;&gt;企业10 -->
<g id="edge21" class="edge"><title>胡丁&#45;&gt;企业10</title>
<path fill="none" stroke="#c1a57b" d="M174.398,-254.325C165.894,-266.6 151.909,-286.787 142.609,-300.211"/>
<polygon fill="#c1a57b" stroke="#c1a57b" points="141.059,-299.376 139.65,-304.482 143.936,-301.369 141.059,-299.376"/>
<text text-anchor="middle" x="152.003" y="-279.468" font-family="STZhongsong" font-size="6.00">董事</text>
</g>
</g>
</svg>
